<?xml version="1.0" encoding="UTF-8" standalone="no"?>
<!-- Created with Inkscape (http://www.inkscape.org/) -->

<svg
   width="50mm"
   height="20mm"
   viewBox="0 0 50 20"
   version="1.1"
   id="svg11821"
   inkscape:version="1.2.2 (b0a84865, 2022-12-01)"
   sodipodi:docname="unfold-logo.svg"
   xmlns:inkscape="http://www.inkscape.org/namespaces/inkscape"
   xmlns:sodipodi="http://sodipodi.sourceforge.net/DTD/sodipodi-0.dtd"
   xmlns="http://www.w3.org/2000/svg"
   xmlns:svg="http://www.w3.org/2000/svg">
  <sodipodi:namedview
     id="namedview11823"
     pagecolor="#000000"
     bordercolor="#666666"
     borderopacity="1.0"
     inkscape:showpageshadow="2"
     inkscape:pageopacity="0"
     inkscape:pagecheckerboard="0"
     inkscape:deskcolor="#d1d1d1"
     inkscape:document-units="mm"
     showgrid="false"
     inkscape:zoom="1.6819304"
     inkscape:cx="37.45696"
     inkscape:cy="38.64607"
     inkscape:window-width="1309"
     inkscape:window-height="456"
     inkscape:window-x="0"
     inkscape:window-y="38"
     inkscape:window-maximized="0"
     inkscape:current-layer="layer1" />
  <defs
     id="defs11818" />
  <g
     inkscape:label="Layer 1"
     inkscape:groupmode="layer"
     id="layer1"
     transform="translate(-29.812025,-98.820648)">
    <g
       id="g12625"
       transform="matrix(1.2049445,0,0,1.2049445,-6.9669391,-21.118308)">
      <g
         id="g5119"
         transform="matrix(1.3728218,0,0,1.3728218,-63.424796,34.429365)">
        <path
           id="path2081"
           style="opacity:0.77;fill:none;stroke:#fe9353;stroke-width:0.15;stroke-linecap:round;stroke-linejoin:round;stroke-dasharray:none;stop-color:#7f7f7f"
           d="m 75.971743,55.432587 v -2.33315 c 0,-1.03027 -0.835195,-1.86547 -1.865465,-1.86547 -1.03027,0 -1.865466,0.8352 -1.865466,1.86547 v 1.454953"
           sodipodi:nodetypes="cscsc" />
        <path
           id="path2083"
           style="opacity:0.77;fill:none;stroke:#ffac7f;stroke-width:0.15;stroke-linecap:round;stroke-linejoin:round;stroke-dasharray:none;stop-color:#7f7f7f"
           d="m 75.775378,55.264597 v -2.16516 c 0,-0.92181 -0.747282,-1.6691 -1.6691,-1.6691 -0.921819,0 -1.669101,0.74729 -1.669101,1.6691 v 1.73904"
           sodipodi:nodetypes="cscsc" />
        <path
           id="path2085"
           style="opacity:0.77;fill:none;stroke:#ffcba9;stroke-width:0.15;stroke-linecap:round;stroke-linejoin:round;stroke-dasharray:none;stop-color:#7f7f7f"
           d="m 75.579013,55.089137 v -1.9897 c 0,-0.81337 -0.659364,-1.47274 -1.472735,-1.47274 -0.813371,0 -1.472736,0.65937 -1.472736,1.47274 v 1.80588"
           sodipodi:nodetypes="cscsc" />
        <path
           id="path2087"
           style="opacity:0.77;fill:none;stroke:#fee3d3;stroke-width:0.15;stroke-linecap:round;stroke-linejoin:round;stroke-dasharray:none;stop-color:#7f7f7f"
           d="m 75.382649,54.922027 v -1.82259 c 0,-0.70492 -0.571451,-1.27637 -1.276371,-1.27637 -0.70492,0 -1.276371,0.57145 -1.276371,1.27637 v 1.8393"
           sodipodi:nodetypes="cscsc" />
        <path
           id="path2089"
           style="opacity:0.77;fill:none;stroke:#fffdfd;stroke-width:0.15;stroke-linecap:round;stroke-linejoin:round;stroke-dasharray:none;stop-color:#7f7f7f"
           d="m 75.186284,54.754927 v -1.65549 c 0,-0.59647 -0.483534,-1.08001 -1.080006,-1.08001 -0.596473,0 -1.080007,0.48354 -1.080007,1.08001 v 1.78917"
           sodipodi:nodetypes="cscsc" />
        <path
           id="path2091"
           style="opacity:0.77;fill:none;stroke:#ffffff;stroke-width:0.15;stroke-linecap:round;stroke-linejoin:round;stroke-dasharray:none;stop-color:#7f7f7f"
           d="m 74.989919,54.579457 v -1.48002 c -10e-7,-0.48802 -0.39562,-0.88364 -0.883641,-0.88364 -0.488021,0 -0.883642,0.39562 -0.883642,0.88364 v 1.65549"
           sodipodi:nodetypes="cscsc" />
        <path
           id="path2093"
           style="opacity:0.77;fill:none;stroke:#30d5ff;stroke-width:0.15;stroke-linecap:round;stroke-linejoin:round;stroke-dasharray:none;stop-color:#7f7f7f"
           d="m 71.037641,51.914517 v 2.35734 c 0,1.03027 0.70151,1.86547 1.73178,1.86547 1.03027,0 1.942901,-0.81874 1.965729,-1.84876 0,0 -0.0024,-0.72517 0,-0.94304 0.0084,-0.793763 0.98058,-0.97157 1.080844,-1.013347"
           sodipodi:nodetypes="cscscc" />
        <path
           id="path2095"
           style="opacity:0.77;fill:none;stroke:#64e0ff;stroke-width:0.15;stroke-linecap:round;stroke-linejoin:round;stroke-dasharray:none;stop-color:#7f7f7f"
           d="m 71.234006,52.081627 v 2.19023 c 0,0.92182 0.613596,1.6691 1.535415,1.6691 0.921818,0 1.719232,-0.74728 1.719232,-1.6691 v -0.94528 c -0.03678,-0.919626 0.842729,-1.662821 0.842729,-1.662821"
           sodipodi:nodetypes="cscscc" />
        <path
           id="path2097"
           style="opacity:0.77;fill:none;stroke:#97ecfe;stroke-width:0.15;stroke-linecap:round;stroke-linejoin:round;stroke-dasharray:none;stop-color:#7f7f7f"
           d="m 71.430371,52.248737 v 2.02312 c 0,0.81337 0.525679,1.47274 1.33905,1.47274 0.813371,0 1.472735,-0.65937 1.472735,-1.47274 v -1.374275 c 0,-0.618288 0.454221,-1.618174 0.454221,-1.618174"
           sodipodi:nodetypes="cscscc" />
        <path
           id="path2099"
           style="opacity:0.77;fill:none;stroke:#cbf5fe;stroke-width:0.15;stroke-linecap:round;stroke-linejoin:round;stroke-dasharray:none;stop-color:#7f7f7f"
           d="m 71.626736,52.415847 v 1.85601 c 0,0.70492 0.437765,1.27637 1.142685,1.27637 0.70492,0 1.187373,-0.571471 1.192817,-1.27637 l 0.01182,-1.52997 c 0,-0.802116 -0.464138,-1.429057 -0.464138,-1.429057"
           sodipodi:nodetypes="cscscc" />
        <path
           id="path2101"
           style="opacity:0.77;fill:none;stroke:#fdfeff;stroke-width:0.15;stroke-linecap:round;stroke-linejoin:round;stroke-dasharray:none;stop-color:#7f7f7f"
           d="m 71.8231,52.582947 v 1.68891 c 0,0.59647 0.349848,1.08001 0.946321,1.08001 0.596472,0 0.94632,-0.4167 0.94632,-1.08001 v -1.355374 c 0,-0.785412 -0.941098,-1.152461 -0.941098,-1.152461"
           sodipodi:nodetypes="cscscc" />
        <path
           id="path2103"
           style="opacity:0.77;fill:none;stroke:#ffffff;stroke-width:0.15;stroke-linecap:round;stroke-linejoin:round;stroke-dasharray:none;stop-color:#7f7f7f"
           d="m 72.019465,52.750057 v 1.5218 c 0,0.48802 0.261935,0.88364 0.749956,0.88364 0.488021,0 0.716534,-0.27864 0.716534,-0.76666 v -1.057713 c -0.03342,-0.83554 -1.162502,-0.764992 -1.162502,-0.764992"
           sodipodi:nodetypes="cscscc" />
      </g>
      <text
         xml:space="preserve"
         style="font-style:normal;font-variant:normal;font-weight:200;font-stretch:normal;font-size:9.90027px;line-height:0px;font-family:'Helvetica Neue';-inkscape-font-specification:'Helvetica Neue, Ultra-Light';font-variant-ligatures:normal;font-variant-caps:normal;font-variant-numeric:normal;font-variant-east-asian:normal;fill:#ffffff;fill-opacity:1;stroke:none;stroke-width:2.80638;stroke-opacity:1"
         x="41.729088"
         y="110.19201"
         id="text2107"><tspan
           sodipodi:role="line"
           id="tspan2105"
           style="fill:#ffffff;fill-opacity:1;stroke-width:2.80638"
           x="41.729088"
           y="110.19201">unfold</tspan></text>
    </g>
  </g>
</svg>
